<svg xmlns="http://www.w3.org/2000/svg" width="32" height="32" viewBox="0 0 32 32">
  <defs>
    <radialGradient id="bg" cx="16" cy="16" r="16" gradientUnits="userSpaceOnUse">
      <stop offset="0" stop-color="#19203a"/>
      <stop offset="1" stop-color="#070a12"/>
    </radialGradient>
  </defs>
  <circle cx="16" cy="16" r="16" fill="url(#bg)"/>
  <path d="M4.749 7.128C5.449 4.928 8.349 3.028 12.049 2.428 15.449 1.828 19.249 2.728 21.149 4.228 22.949 5.628 22.749 7.528 20.749 9.228 18.349 11.228 14.049 12.128 10.749 11.528 7.649 11.028 5.449 9.428 4.749 7.128Z" fill="#18c9ff" opacity="0.35"/>
  <path d="M7.1 7.6C7.6 6.1 9.9 4.8 12.8 4.5 15.6 4.3 18.6 5 20.1 6.1 21.5 7.1 21.1 8.5 19.4 9.8 17.3 11.3 13.8 12 11.2 11.6 8.6 11.3 7 10.1 7.1 7.6Z" fill="#18c9ff" opacity="0.5"/>
  <path d="M8.8 8.3C9.1 7.4 10.6 6.6 12.8 6.5 14.8 6.4 16.8 6.9 17.8 7.4 18.8 8 18.5 9 17.4 9.8 15.9 10.8 13.5 11.2 11.5 10.9 9.6 10.6 8.4 9.6 8.8 8.3Z" fill="#18c9ff" opacity="0.65"/>
  <path d="M10.6 8.8C10.9 8.2 12 7.8 13.2 7.8 14.1 7.8 15.1 8.1 15.7 8.5 16.4 9 16.3 9.7 15.4 10.3 14.6 10.8 13.3 11.1 12.3 10.9 11.2 10.7 10.4 10.1 10.6 8.8Z" fill="#18c9ff" opacity="0.4"/>
  <path d="M10.025 23.27C13.089 20.894 18.425 19.805 22.675 20.498 26.035 20.993 29.226 19.369 30.016 21.151 30.708 22.636 28.287 25.1 26.846 27.156 24.376 28.541 21.588 30.496 17.338 30.398 13.089 30.298 9.728 29.408 7.554 27.824 5.578 26.438 5.973 24.854 10.025 23.27Z" fill="#6a2300" opacity="0.95"/>
  <path d="M10.419 24C13.382 22.2 18.431 21.5 22.272 22.3 24.905 22.8 26.332 23.8 25.893 24.8 25.454 25.9 25.015 28.359 22.272 28.859 13.511 29.751 14.37 27.7 11.626 27.2 9.212 26.7 8.334 25.7 10.748 24L10.419 24Z" fill="#b23b00" opacity="0.95"/>
  <path d="M13.4 25C15.4 23.9 18.9 23.4 21.4 24.1 23 24.5 24.234 25.5 23.434 26.2 22.534 27 19.7 26.9 17.4 27 15 27.1 12.7 26.8 11.6 26.2 10.6 25.7 11 25.1 13.4 25Z" fill="#b23b00" opacity="0.9"/>
  <path d="M15.658 25.104C16.858 24.404 19.358 24.104 21.158 24.504 22.158 24.704 22.358 25.204 21.758 25.704 21.058 26.304 19.558 26.604 17.858 26.704 16.258 26.804 14.558 26.604 13.858 26.104 13.258 25.704 13.458 25.304 15.658 25.104Z" fill="#ffb36b" opacity="0.8"/>
  <g fill="#22dd09"><path d="M2.595 21.384L1.862 19.569c-.062-.154-.074-.284-.036-.389s.114-.181.227-.227c.119-.048.228-.047.329.002s.182.151.244.306l.749 1.855c.086.211.181.378.285.5s.232.199.384.229.335-.029.551-.116c.299-.12.478-.285.537-.493s.024-.474-.106-.796l-.756-1.871c-.063-.156-.075-.286-.037-.39s.114-.179.229-.226.223-.047.325.001.185.149.248.305l.733 1.814c.119.295.19.553.212.773s-.016.438-.115.652c-.086.183-.208.34-.366.472s-.359.247-.603.345c-.29.117-.552.187-.787.209s-.444-.006-.629-.083-.35-.207-.494-.387-.274-.412-.389-.697z"/><path d="M6.855 17.546l2.368 1.63-.907-2.244c-.059-.146-.072-.268-.039-.366s.103-.169.209-.212c.109-.045.211-.043.303.004s.169.144.228.29l1.199 2.967c.134.331.064.552-.21.663-.069.028-.134.043-.197.046s-.127-.008-.192-.032-.13-.056-.194-.096-.134-.083-.199-.126l-2.321-1.619.893 2.21c.058.144.069.266.032.367s-.108.173-.212.215c-.108.043-.21.041-.305-.007s-.172-.144-.229-.286l-1.176-2.91c-.05-.123-.075-.225-.076-.306.001-.09.03-.175.085-.254s.128-.136.215-.171c.069-.028.132-.04.19-.037s.113.015.165.038.109.056.171.101.128.091.195.139z"/><path d="M11.097 19.295l-1.201-2.972c-.062-.154-.073-.284-.034-.389s.114-.181.226-.226c.115-.047.223-.046.325.001s.185.149.248.305l1.201 2.972c.063.156.075.287.035.393s-.118.182-.233.228c-.11.044-.216.042-.319-.008s-.185-.151-.247-.305z"/><path d="M12.089 15.482l1.877 2.184-.173-2.894c-.01-.151-.014-.258-.013-.319s.019-.124.053-.187.096-.112.185-.148c.065-.026.132-.034.201-.024s.13.036.183.077.091.089.113.144c.015.038.026.081.034.129s.012.096.014.144.004.098.007.149l.083 2.834c.005.107.008.21.01.308s-.008.188-.025.27-.053.157-.108.227-.133.126-.236.168-.198.057-.285.045-.166-.041-.236-.089-.139-.108-.206-.179-.13-.147-.201-.228l-1.886-2.082-.101-.122c-.032-.036-.065-.077-.096-.122s-.053-.084-.067-.118c-.035-.087-.032-.181.009-.281s.115-.172.221-.215c.13-.053.239-.05.325.008s.193.163.32.316z"/><path d="M17.704 13.39l-1.722.695.374.927 1.585-.641c.117-.047.214-.056.293-.025s.135.086.17.172.035.167 0 .244-.111.139-.229.187l-1.585.641.433 1.073 1.781-.72c.12-.048.222-.057.305-.025s.144.093.181.186c.036.089.035.174-.003.254s-.118.145-.238.194l-2.076.839c-.166.067-.301.078-.404.034s-.187-.149-.254-.313l-1.146-2.836c-.044-.11-.064-.206-.059-.289s.035-.153.092-.213.139-.112.247-.156l2.017-.815c.122-.049.223-.058.304-.028s.139.089.174.177c.036.089.035.172-.002.25s-.117.141-.239.19z"/><path d="M20.394 14.129l-.267.108.49 1.212c.064.159.076.291.036.395s-.116.179-.229.225c-.122.049-.232.048-.33-.004s-.179-.154-.24-.306l-1.173-2.903c-.066-.165-.078-.299-.034-.403s.148-.189.313-.256l1.243-.502c.171-.069.321-.121.449-.156s.249-.049.365-.044c.139.002.272.031.4.087s.241.135.338.239.173.224.229.361c.113.281.125.538.034.77s-.283.449-.577.65c.165.017.338.071.518.162s.351.196.512.316.294.232.399.338.168.183.187.231c.02.049.024.105.012.167s-.04.118-.083.168-.101.09-.173.119c-.086.035-.166.044-.24.027s-.145-.048-.212-.093-.161-.112-.281-.203l-.512-.386c-.186-.143-.341-.245-.467-.308s-.241-.094-.345-.094-.223.027-.358.082zm-.203-1.762l-.705.285.419 1.037.684-.277c.183-.074.331-.152.443-.235s.186-.175.221-.278.026-.221-.028-.355a.556.556 0 0 0-.191-.244c-.085-.058-.183-.088-.293-.09-.104-.002-.287.051-.55.157z"/><path d="M26.219 12.335c.092.228.116.457.072.686s-.158.441-.343.636-.432.354-.743.479c-.372.15-.708.204-1.006.161-.213-.032-.407-.111-.582-.236s-.296-.268-.36-.427c-.037-.093-.037-.185 0-.277s.106-.158.206-.198c.081-.033.159-.035.236-.006s.156.086.236.171c.096.101.189.181.277.239s.194.092.316.103.266-.016.431-.083c.226-.091.389-.219.488-.382s.116-.323.053-.481c-.051-.125-.13-.211-.238-.258s-.231-.047-.369-.039-.317.029-.538.065c-.296.046-.553.064-.77.053s-.409-.068-.575-.172-.294-.264-.382-.482c-.084-.208-.102-.415-.054-.622s.162-.397.341-.571.414-.318.705-.435c.231-.093.443-.146.635-.157s.363.009.513.059.272.117.366.201.16.175.2.275c.037.091.038.186.003.285s-.1.168-.196.207c-.087.035-.162.041-.225.016s-.141-.077-.234-.155c-.127-.114-.254-.192-.382-.233s-.299-.019-.512.067c-.197.08-.338.188-.424.324s-.104.264-.055.386c.031.076.078.133.141.171s.139.062.227.072.173.011.256.004.217-.024.404-.05c.233-.036.448-.059.645-.069s.373.014.529.051.294.107.415.211.22.251.297.441z"/><path d="M28.525 9.017l-1.722.696.374.926 1.585-.64c.116-.048.214-.057.293-.026s.135.086.17.172.035.167 0 .244-.112.139-.23.187l-1.585.641.434 1.073 1.781-.719c.12-.048.222-.057.305-.025s.144.093.181.186c.036.089.035.174-.003.254s-.118.146-.238.195l-2.076.839c-.166.067-.301.079-.404.034s-.187-.149-.254-.313L25.99 9.901c-.044-.11-.064-.206-.06-.289s.036-.153.093-.213.139-.112.247-.157l2.017-.815c.122-.049.223-.058.304-.028s.139.089.174.177c.036.089.035.172-.003.25s-.117.141-.239.19z"/></g>
</svg>
